<svg width="75" height="75" viewBox="0 0 75 75" fill="none" xmlns="http://www.w3.org/2000/svg">
<path d="M30.2602 14.5408L37.5 7.27041L44.7398 0H52.2168H59.6939V7.82985V15.6597L52.6301 22.7533C48.7446 26.6549 45.3008 29.8469 44.977 29.8469C44.6526 29.8469 44.3878 26.4031 44.3878 22.1939V14.5408H37.324H30.2602Z" fill="#000000"/>
<path d="M0 30.2602V22.7832V15.3061H7.47704H14.9541L22.1939 22.5765L29.4337 29.8469H21.9872H14.5408V37.2934V44.7398L7.27041 37.5L0 30.2602Z" fill="#000000"/>
<path d="M60.4592 45.1531V37.761V30.3689L67.6929 37.9523L74.9265 45.5357L74.9633 52.9974L75 60.4592H67.5237H60.0475L52.4235 52.8061L44.7995 45.1531H52.6293H60.4592Z" fill="#000000"/>
<path d="M14.5408 59.514L21.6199 52.3531C25.5138 48.4148 28.9577 45.1837 29.273 45.173C29.5883 45.1622 29.8469 48.5969 29.8469 52.8061V60.4592H36.9107H43.9745L36.7347 67.7296L29.4949 75H22.0179H14.5408V67.2566V59.514Z" fill="#000000"/>
</svg>
